<svg width="22" height="22" viewBox="0 0 22 22" fill="none" xmlns="http://www.w3.org/2000/svg">
<path d="M2.40625 18.9062C2.40625 19.2865 2.71348 19.5938 3.09375 19.5938H18.9062C19.2865 19.5938 19.5938 19.2865 19.5938 18.9062V9.88281H2.40625V18.9062ZM18.9062 3.95312H15.2969V2.57812C15.2969 2.48359 15.2195 2.40625 15.125 2.40625H13.9219C13.8273 2.40625 13.75 2.48359 13.75 2.57812V3.95312H8.25V2.57812C8.25 2.48359 8.17266 2.40625 8.07812 2.40625H6.875C6.78047 2.40625 6.70312 2.48359 6.70312 2.57812V3.95312H3.09375C2.71348 3.95312 2.40625 4.26035 2.40625 4.64062V8.42188H19.5938V4.64062C19.5938 4.26035 19.2865 3.95312 18.9062 3.95312Z" fill="#FFFAF3"/>
</svg>
