<svg width="23" height="23" viewBox="0 0 23 23" fill="none" xmlns="http://www.w3.org/2000/svg">
<path d="M1.74687 0.124666L22.3059 10.3549C22.5137 10.4582 22.6891 10.6205 22.812 10.8231C22.9348 11.0258 23 11.2605 23 11.5001C23 11.7397 22.9348 11.9744 22.812 12.177C22.6891 12.3797 22.5137 12.542 22.3059 12.6452L1.74687 22.8755C1.53611 22.9805 1.30079 23.0203 1.0689 22.9902C0.837015 22.9601 0.618325 22.8613 0.438852 22.7056C0.259378 22.5499 0.126678 22.3438 0.0565393 22.1119C-0.0135994 21.8799 -0.0182235 21.6319 0.0432171 21.3973L2.10009 13.5518C2.12527 13.4557 2.1771 13.3693 2.2491 13.3036C2.32111 13.2379 2.41012 13.1957 2.50503 13.1823L12.4674 11.7742C12.5091 11.768 12.5485 11.7508 12.5818 11.7241C12.6151 11.6974 12.6413 11.6622 12.6577 11.6219L12.6752 11.559C12.6829 11.5023 12.672 11.4446 12.6442 11.3952C12.6164 11.3458 12.5733 11.3076 12.5221 11.2869L12.4684 11.2717L2.51576 9.86356C2.42103 9.84994 2.33223 9.80765 2.26041 9.74195C2.18859 9.67625 2.13691 9.59003 2.1118 9.49402L0.0432171 1.60382C-0.0184724 1.36917 -0.0140364 1.12102 0.0559965 0.888915C0.126029 0.656812 0.258708 0.450544 0.438229 0.29468C0.61775 0.138815 0.836547 0.0399218 1.06856 0.00977951C1.30057 -0.0203628 1.53603 0.019516 1.74687 0.124666Z" fill="white"/>
</svg>
