<svg width="54" height="53" viewBox="0 0 54 53" fill="none" xmlns="http://www.w3.org/2000/svg">
<rect x="0.757324" y="0.394531" width="52.3636" height="52.3636" rx="7" fill="#474163"/>
<path fill-rule="evenodd" clip-rule="evenodd" d="M19.7431 9.22777C21.6044 9.14209 22.1979 9.12305 26.9392 9.12305C31.6805 9.12305 32.2739 9.14367 34.1336 9.22777C35.9933 9.31187 37.2627 9.6086 38.3735 10.0386C39.5366 10.4782 40.5918 11.1652 41.4645 12.0538C42.3531 12.925 43.0386 13.9786 43.4766 15.1433C43.9082 16.254 44.2033 17.5234 44.289 19.38C44.3747 21.2444 44.3937 21.8379 44.3937 26.5776C44.3937 31.3189 44.3731 31.9123 44.289 33.7736C44.2049 35.6302 43.9082 36.8996 43.4766 38.0103C43.0386 39.1752 42.352 40.2305 41.4645 41.1029C40.5918 41.9915 39.5366 42.677 38.3735 43.115C37.2627 43.5466 35.9933 43.8417 34.1368 43.9274C32.2739 44.0131 31.6805 44.0321 26.9392 44.0321C22.1979 44.0321 21.6044 44.0115 19.7431 43.9274C17.8866 43.8433 16.6172 43.5466 15.5064 43.115C14.3416 42.677 13.2863 41.9904 12.4138 41.1029C11.5258 40.2313 10.8386 39.1764 10.4002 38.0119C9.97017 36.9012 9.67503 35.6317 9.58935 33.7752C9.50366 31.9107 9.48462 31.3173 9.48462 26.5776C9.48462 21.8363 9.50525 21.2428 9.58935 19.3831C9.67345 17.5234 9.97017 16.254 10.4002 15.1433C10.8393 13.9787 11.527 12.9239 12.4154 12.0522C13.2866 11.1644 14.3409 10.4773 15.5049 10.0386C16.6156 9.6086 17.885 9.31346 19.7415 9.22777H19.7431ZM33.9924 12.3696C32.1517 12.2855 31.5995 12.268 26.9392 12.268C22.2788 12.268 21.7266 12.2855 19.8859 12.3696C18.1833 12.4473 17.2598 12.7314 16.6442 12.971C15.8301 13.2883 15.2478 13.6644 14.6369 14.2753C14.0578 14.8387 13.6121 15.5246 13.3326 16.2826C13.0929 16.8983 12.8089 17.8218 12.7312 19.5244C12.6471 21.365 12.6296 21.9172 12.6296 26.5776C12.6296 31.238 12.6471 31.7902 12.7312 33.6308C12.8089 35.3334 13.0929 36.2569 13.3326 36.8726C13.6118 37.6295 14.0577 38.3166 14.6369 38.8799C15.2002 39.459 15.8873 39.9049 16.6442 40.1842C17.2598 40.4238 18.1833 40.7078 19.8859 40.7856C21.7266 40.8697 22.2772 40.8871 26.9392 40.8871C31.6011 40.8871 32.1517 40.8697 33.9924 40.7856C35.695 40.7078 36.6185 40.4238 37.2342 40.1842C38.0482 39.8668 38.6305 39.4908 39.2414 38.8799C39.8206 38.3166 40.2665 37.6295 40.5458 36.8726C40.7854 36.2569 41.0694 35.3334 41.1472 33.6308C41.2313 31.7902 41.2487 31.238 41.2487 26.5776C41.2487 21.9172 41.2313 21.365 41.1472 19.5244C41.0694 17.8218 40.7854 16.8983 40.5458 16.2826C40.2284 15.4686 39.8524 14.8862 39.2414 14.2753C38.678 13.6963 37.9922 13.2506 37.2342 12.971C36.6185 12.7314 35.695 12.4473 33.9924 12.3696ZM24.7097 31.9584C25.9548 32.4766 27.3412 32.5466 28.6321 32.1563C29.9231 31.7659 31.0384 30.9395 31.7877 29.8182C32.537 28.6968 32.8738 27.3501 32.7405 26.0081C32.6072 24.6661 32.0121 23.4119 31.0568 22.4599C30.4479 21.8513 29.7116 21.3854 28.9009 21.0955C28.0903 20.8057 27.2255 20.6992 26.3687 20.7837C25.512 20.8682 24.6846 21.1416 23.9462 21.5842C23.2078 22.0268 22.5767 22.6277 22.0984 23.3435C21.6201 24.0593 21.3064 24.8723 21.18 25.7238C21.0536 26.5754 21.1175 27.4444 21.3673 28.2683C21.617 29.0922 22.0463 29.8505 22.6243 30.4886C23.2022 31.1266 23.9145 31.6286 24.7097 31.9584ZM20.5952 20.2337C21.4283 19.4006 22.4174 18.7397 23.5059 18.2888C24.5943 17.838 25.761 17.6059 26.9392 17.6059C28.1173 17.6059 29.284 17.838 30.3725 18.2888C31.461 18.7397 32.45 19.4006 33.2831 20.2337C34.1162 21.0668 34.777 22.0558 35.2279 23.1443C35.6788 24.2328 35.9108 25.3994 35.9108 26.5776C35.9108 27.7558 35.6788 28.9224 35.2279 30.0109C34.777 31.0994 34.1162 32.0884 33.2831 32.9215C31.6006 34.604 29.3186 35.5493 26.9392 35.5493C24.5597 35.5493 22.2777 34.604 20.5952 32.9215C18.9127 31.239 17.9675 28.957 17.9675 26.5776C17.9675 24.1982 18.9127 21.9162 20.5952 20.2337ZM37.9006 18.942C38.1071 18.7473 38.2723 18.5131 38.3867 18.2533C38.501 17.9936 38.562 17.7135 38.5661 17.4297C38.5703 17.1459 38.5174 16.8642 38.4107 16.6012C38.304 16.3382 38.1457 16.0993 37.945 15.8986C37.7443 15.698 37.5054 15.5396 37.2424 15.4329C36.9794 15.3262 36.6977 15.2734 36.4139 15.2775C36.1301 15.2816 35.8501 15.3427 35.5903 15.457C35.3305 15.5713 35.0964 15.7366 34.9016 15.943C34.5229 16.3445 34.3155 16.8778 34.3235 17.4297C34.3316 17.9816 34.5544 18.5086 34.9447 18.8989C35.335 19.2892 35.862 19.512 36.4139 19.5201C36.9658 19.5281 37.4991 19.3208 37.9006 18.942Z" fill="white"/>
</svg>
