<svg width="53" height="53" viewBox="0 0 53 53" fill="none" xmlns="http://www.w3.org/2000/svg">
<rect y="0.394531" width="52.3636" height="52.3636" rx="7" fill="#474163"/>
<path d="M12.7415 40.5396H17.9779V21.165H12.7415V40.5396ZM15.3597 12.6123C13.6143 12.6123 12.2179 14.0087 12.2179 15.7541C12.2179 17.4996 13.6143 18.8959 15.3597 18.8959C17.1052 18.8959 18.5015 17.4996 18.5015 15.7541C18.5015 14.0087 17.1052 12.6123 15.3597 12.6123ZM26.8797 24.1323V21.165H21.6433V40.5396H26.8797V30.5905C26.8797 25.005 34.0361 24.6559 34.0361 30.5905V40.5396H39.2724V28.6705C39.2724 19.245 29.3233 19.5941 26.8797 24.1323Z" fill="white"/>
</svg>
