<svg width="53" height="53" viewBox="0 0 53 53" fill="none" xmlns="http://www.w3.org/2000/svg">
<rect width="52.3636" height="52.3636" rx="7" fill="#474163"/>
<path d="M26.1819 26.9298L10.4728 18.857V16.9557C10.4728 16.3947 10.6672 15.922 11.0558 15.5376C11.4444 15.1531 11.9047 14.9609 12.4365 14.9609H39.9274C40.4592 14.9609 40.9194 15.1531 41.3081 15.5376C41.6967 15.922 41.891 16.3947 41.891 16.9557V18.857L26.1819 26.9298ZM25.2001 28.9246H27.1637L41.891 21.1635V36.9038C41.891 37.4441 41.6967 37.9116 41.3081 38.3064C40.9194 38.7012 40.4592 38.8986 39.9274 38.8986H12.4365C11.9047 38.8986 11.4444 38.7012 11.0558 38.3064C10.6672 37.9116 10.4728 37.4441 10.4728 36.9038V21.1635L25.2001 28.9246Z" fill="white"/>
</svg>
