<svg width="53" height="53" viewBox="0 0 53 53" fill="none" xmlns="http://www.w3.org/2000/svg">
<rect y="0.394531" width="52.3636" height="52.3636" rx="7" fill="#474163"/>
<path d="M41.891 17.5441C40.7356 18.0823 39.4944 18.4459 38.1896 18.6103C39.5359 17.7635 40.5432 16.4306 41.0234 14.8605C39.7585 15.6503 38.3741 16.2062 36.9304 16.5041C35.9596 15.4145 34.6737 14.6922 33.2724 14.4495C31.8711 14.2069 30.4327 14.4573 29.1807 15.162C27.9286 15.8666 26.9329 16.9861 26.3481 18.3466C25.7633 19.7071 25.6222 21.2325 25.9466 22.6859C23.3836 22.5507 20.8763 21.8504 18.5874 20.6305C16.2984 19.4107 14.2791 17.6985 12.6604 15.6052C12.1069 16.6089 11.7887 17.7725 11.7887 19.0118C11.7881 20.1274 12.0494 21.2259 12.5495 22.2099C13.0497 23.1939 13.7731 24.0329 14.6557 24.6525C13.6321 24.6183 12.6312 24.3275 11.7361 23.8045V23.8918C11.736 25.4565 12.2509 26.973 13.1934 28.1841C14.1359 29.3952 15.448 30.2262 16.907 30.5361C15.9574 30.8063 14.962 30.8461 13.9957 30.6525C14.4073 31.9988 15.2092 33.1762 16.289 34.0197C17.3688 34.8631 18.6724 35.3306 20.0175 35.3565C17.7342 37.2407 14.9143 38.2628 12.0114 38.2583C11.4972 38.2585 10.9835 38.2269 10.4728 38.1638C13.4193 40.1553 16.8493 41.2122 20.3524 41.2081C32.2106 41.2081 38.6932 30.8838 38.6932 21.9296C38.6932 21.6387 38.6863 21.3449 38.6739 21.0539C39.9348 20.0954 41.0233 18.9083 41.8882 17.5485L41.891 17.5441Z" fill="white"/>
</svg>
