<svg width="225" height="35" viewBox="0 0 225 35" fill="none" xmlns="http://www.w3.org/2000/svg">
<path d="M33.9415 22.7827L16.9037 14.3128L0 22.7827L16.9037 31.0252L33.9415 22.7827Z" fill="#7676E8"/>
<path d="M33.9415 25.7515L16.905 34.3675L0 25.7515V22.7827L16.905 30.9883L33.9415 22.7787V25.7515Z" fill="#5B5BA9"/>
<path d="M33.9415 15.653L16.9037 7.18317L0 15.653L16.9037 23.8955L33.9415 15.653Z" fill="#86E9DA"/>
<path d="M33.9415 18.6216L16.905 27.2377L0 18.6216V15.653L16.905 23.8585L33.9415 15.6488V18.6216Z" fill="#68B1A6"/>
<path d="M33.9417 8.46987L16.9039 0L0.000197593 8.46987L16.9039 16.7124L33.9417 8.46987Z" fill="#FC6D83"/>
<path d="M33.9415 11.4385L16.905 20.0546L0 11.4385L0.000197593 8.46987L16.905 16.6754L33.9415 8.46573V11.4385Z" fill="#CD5769"/>
<path d="M49.561 30.4172V8.99086H41.8182V3.87128H63.2248V8.99086H55.2542V30.4172H49.561Z" fill="#FFFAF3"/>
<path d="M72.9137 30.7964C70.7376 30.7964 68.8398 30.354 67.2204 29.4691C65.601 28.5843 64.3359 27.3708 63.4249 25.8286C62.514 24.2864 62.0586 22.5166 62.0586 20.5194C62.0586 18.9772 62.3116 17.5614 62.8177 16.272C63.3237 14.9827 64.0322 13.8702 64.9431 12.9348C65.854 11.9741 66.9294 11.2409 68.1693 10.7353C69.4345 10.2044 70.8008 9.93892 72.2684 9.93892C73.6348 9.93892 74.9 10.1917 76.0639 10.6974C77.2279 11.1777 78.2274 11.873 79.0624 12.7831C79.9227 13.668 80.5806 14.7172 81.036 15.9307C81.4915 17.1442 81.6939 18.4715 81.6433 19.9126L81.6053 21.5812H65.4745L64.6015 18.2819H77.1646L76.5574 18.9645V18.1302C76.5067 17.4476 76.279 16.8282 75.8742 16.272C75.4946 15.7158 75.0012 15.286 74.3939 14.9827C73.7866 14.6793 73.1034 14.5276 72.3443 14.5276C71.231 14.5276 70.2821 14.7425 69.4977 15.1723C68.7386 15.6021 68.1567 16.2341 67.7518 17.0684C67.3469 17.9027 67.1445 18.914 67.1445 20.1022C67.1445 21.3158 67.3976 22.3649 67.9036 23.2498C68.435 24.1347 69.1688 24.8299 70.105 25.3356C71.0665 25.8159 72.1925 26.0561 73.483 26.0561C74.3686 26.0561 75.1783 25.917 75.9121 25.6389C76.6459 25.3608 77.4303 24.8805 78.2653 24.1979L80.8463 27.8005C80.1125 28.4579 79.3028 29.0141 78.4171 29.4691C77.5315 29.8989 76.6206 30.2276 75.6844 30.4551C74.7482 30.6827 73.8246 30.7964 72.9137 30.7964Z" fill="#FFFAF3"/>
<path d="M94.3558 30.7964C92.4328 30.7964 90.7122 30.3414 89.194 29.4312C87.6758 28.5211 86.4739 27.2823 85.5882 25.7148C84.7279 24.1473 84.2978 22.3649 84.2978 20.3677C84.2978 18.3957 84.7279 16.626 85.5882 15.0585C86.4739 13.4657 87.6758 12.2143 89.194 11.3041C90.7122 10.394 92.4328 9.93892 94.3558 9.93892C96.1524 9.93892 97.7971 10.2676 99.29 10.9249C100.783 11.5822 101.947 12.4924 102.782 13.6554L99.8214 17.2201C99.4671 16.7397 99.0243 16.3099 98.4929 15.9307C97.9616 15.5262 97.3796 15.2102 96.747 14.9827C96.1397 14.7551 95.5071 14.6413 94.8493 14.6413C93.8118 14.6413 92.8882 14.8942 92.0785 15.3998C91.2941 15.8802 90.6742 16.5501 90.2188 17.4097C89.7633 18.2693 89.5356 19.2553 89.5356 20.3677C89.5356 21.4548 89.7633 22.4282 90.2188 23.2877C90.6995 24.122 91.3448 24.8046 92.1545 25.3356C92.9642 25.8412 93.8751 26.094 94.8872 26.094C95.5451 26.094 96.165 26.0055 96.747 25.8286C97.329 25.6263 97.873 25.3356 98.3791 24.9563C98.9104 24.5771 99.3912 24.122 99.8214 23.5911L102.744 27.1559C101.884 28.243 100.694 29.1278 99.1761 29.8104C97.6579 30.4678 96.0512 30.7964 94.3558 30.7964Z" fill="#FFFAF3"/>
<path d="M106.197 30.4172V2.35437H111.511V14.4517L110.448 14.9068C110.727 13.9967 111.22 13.175 111.929 12.4418C112.662 11.6834 113.535 11.0766 114.548 10.6215C115.56 10.1665 116.622 9.93892 117.736 9.93892C119.254 9.93892 120.519 10.2423 121.531 10.8491C122.569 11.4558 123.34 12.3786 123.847 13.6174C124.378 14.831 124.644 16.3352 124.644 18.1302V30.4172H119.254V18.5474C119.254 17.6372 119.127 16.8788 118.874 16.272C118.621 15.6653 118.229 15.2228 117.698 14.9447C117.192 14.6413 116.559 14.5149 115.8 14.5655C115.193 14.5655 114.623 14.6666 114.092 14.8689C113.586 15.0459 113.143 15.3113 112.764 15.6653C112.409 16.0192 112.118 16.4237 111.891 16.8788C111.688 17.3339 111.587 17.8269 111.587 18.3578V30.4172H108.93C108.348 30.4172 107.83 30.4172 107.374 30.4172C106.919 30.4172 106.526 30.4172 106.197 30.4172Z" fill="#FFFAF3"/>
<path d="M130.567 30.4172V3.87128H135.653L150.342 23.7049H149.279C149.178 22.9211 149.089 22.1627 149.013 21.4295C148.937 20.6711 148.862 19.9126 148.786 19.1542C148.735 18.3704 148.684 17.574 148.634 16.765C148.608 15.9307 148.583 15.0585 148.558 14.1483C148.533 13.2129 148.52 12.2016 148.52 11.1145V3.87128H154.099V30.4172H148.937L133.945 10.394L135.388 10.4319C135.514 11.7466 135.615 12.8716 135.691 13.807C135.792 14.7172 135.868 15.5136 135.919 16.1962C135.969 16.8788 136.007 17.4729 136.033 17.9785C136.083 18.4842 136.109 18.9645 136.109 19.4196C136.134 19.8747 136.147 20.355 136.147 20.8607V30.4172H130.567Z" fill="#FFFAF3"/>
<path d="M169.576 30.7964C167.526 30.7964 165.692 30.354 164.072 29.4691C162.478 28.559 161.213 27.3202 160.277 25.7527C159.366 24.1852 158.91 22.3902 158.91 20.3677C158.91 18.3451 159.366 16.5628 160.277 15.0206C161.213 13.4531 162.478 12.2143 164.072 11.3041C165.692 10.394 167.526 9.93892 169.576 9.93892C171.6 9.93892 173.409 10.394 175.003 11.3041C176.623 12.2143 177.888 13.4531 178.799 15.0206C179.71 16.5628 180.165 18.3451 180.165 20.3677C180.165 22.3902 179.71 24.1852 178.799 25.7527C177.888 27.3202 176.623 28.559 175.003 29.4691C173.409 30.354 171.6 30.7964 169.576 30.7964ZM169.576 26.094C170.563 26.094 171.448 25.8538 172.233 25.3735C173.017 24.8679 173.624 24.1852 174.054 23.3257C174.51 22.4408 174.738 21.4548 174.738 20.3677C174.738 19.2553 174.51 18.2693 174.054 17.4097C173.624 16.5248 173.017 15.8422 172.233 15.3619C171.448 14.8562 170.563 14.6034 169.576 14.6034C168.564 14.6034 167.665 14.8562 166.881 15.3619C166.097 15.8675 165.477 16.5501 165.021 17.4097C164.566 18.2693 164.351 19.2553 164.376 20.3677C164.351 21.4548 164.566 22.4408 165.021 23.3257C165.477 24.1852 166.097 24.8679 166.881 25.3735C167.665 25.8538 168.564 26.094 169.576 26.094Z" fill="#FFFAF3"/>
<path d="M189.965 30.4172L181.539 10.3561H187.46L192.811 25.3356L191.559 25.5631L197.176 10.3561H202.945L194.102 30.4172H189.965Z" fill="#FFFAF3"/>
<path d="M213.196 30.7964C211.526 30.7964 210.02 30.3414 208.679 29.4312C207.338 28.5211 206.276 27.2823 205.491 25.7148C204.707 24.1473 204.315 22.3523 204.315 20.3298C204.315 18.3072 204.707 16.5248 205.491 14.9827C206.301 13.4152 207.389 12.189 208.755 11.3041C210.122 10.394 211.678 9.93892 213.424 9.93892C214.411 9.93892 215.309 10.0906 216.119 10.394C216.954 10.6721 217.675 11.064 218.282 11.5696C218.915 12.0752 219.446 12.6567 219.876 13.314C220.306 13.9714 220.61 14.6793 220.787 15.4377L219.648 15.2481V10.3561H225V30.4172H219.572V25.601L220.787 25.4873C220.585 26.1951 220.256 26.8651 219.8 27.4972C219.345 28.1292 218.775 28.6981 218.092 29.2037C217.434 29.684 216.688 30.0759 215.853 30.3793C215.018 30.6574 214.132 30.7964 213.196 30.7964ZM214.676 26.1319C215.688 26.1319 216.574 25.8918 217.333 25.4114C218.092 24.9311 218.674 24.2611 219.079 23.4015C219.509 22.5166 219.724 21.4927 219.724 20.3298C219.724 19.1921 219.509 18.1934 219.079 17.3339C218.674 16.4743 218.092 15.8043 217.333 15.324C216.574 14.8183 215.688 14.5655 214.676 14.5655C213.689 14.5655 212.816 14.8183 212.057 15.324C211.324 15.8043 210.742 16.4743 210.311 17.3339C209.881 18.1934 209.666 19.1921 209.666 20.3298C209.666 21.4927 209.881 22.5166 210.311 23.4015C210.742 24.2611 211.324 24.9311 212.057 25.4114C212.816 25.8918 213.689 26.1319 214.676 26.1319Z" fill="#FFFAF3"/>
</svg>
