<svg width="462" height="72" viewBox="0 0 462 72" fill="none" xmlns="http://www.w3.org/2000/svg">
<path d="M19.488 71.04V16.416H0V3.84H53.376V16.416H33.312V71.04H19.488Z" fill="url(#paint0_linear_30_146)"/>
<path d="M77.8043 72C72.3643 72 67.5963 70.88 63.5003 68.64C59.4043 66.4 56.2043 63.328 53.9002 59.424C51.6602 55.52 50.5402 51.04 50.5402 45.984C50.5402 40.736 51.6283 36.128 53.8042 32.16C56.0443 28.128 59.0843 24.96 62.9243 22.656C66.8283 20.352 71.3083 19.2 76.3643 19.2C80.9082 19.2 84.9723 20.32 88.5563 22.56C92.2043 24.736 95.0202 27.712 97.0042 31.488C99.0522 35.264 100.012 39.584 99.8842 44.448L99.7883 48.576H63.3083C64.0123 52.224 65.7402 55.104 68.4922 57.216C71.3083 59.328 74.8603 60.384 79.1483 60.384C81.4523 60.384 83.5323 60.032 85.3883 59.328C87.3083 58.624 89.3562 57.376 91.5322 55.584L97.8683 64.416C95.1163 66.848 91.9482 68.736 88.3643 70.08C84.8443 71.36 81.3242 72 77.8043 72ZM76.4603 30.528C69.2282 30.528 64.8763 33.792 63.4043 40.32H87.4043V39.936C87.2122 37.184 86.0602 34.944 83.9482 33.216C81.9003 31.424 79.4043 30.528 76.4603 30.528Z" fill="url(#paint1_linear_30_146)"/>
<path d="M132.038 72C127.238 72 122.918 70.848 119.078 68.544C115.302 66.24 112.294 63.104 110.054 59.136C107.878 55.168 106.79 50.656 106.79 45.6C106.79 40.608 107.878 36.128 110.054 32.16C112.294 28.192 115.302 25.056 119.078 22.752C122.918 20.448 127.238 19.296 132.038 19.296C136.582 19.296 140.71 20.128 144.422 21.792C148.198 23.456 151.142 25.792 153.254 28.8L146.054 37.44C144.71 35.584 142.854 34.016 140.486 32.736C138.118 31.392 135.718 30.72 133.286 30.72C130.598 30.72 128.198 31.392 126.086 32.736C124.038 34.016 122.406 35.776 121.19 38.016C120.038 40.256 119.462 42.784 119.462 45.6C119.462 48.416 120.07 50.944 121.286 53.184C122.502 55.424 124.166 57.216 126.278 58.56C128.39 59.84 130.758 60.48 133.382 60.48C135.878 60.48 138.182 59.936 140.294 58.848C142.406 57.696 144.326 56.096 146.054 54.048L153.254 62.688C151.078 65.504 148.07 67.776 144.23 69.504C140.39 71.168 136.326 72 132.038 72Z" fill="url(#paint2_linear_30_146)"/>
<path d="M161.992 71.04V0H174.952V26.976C176.68 24.736 178.952 22.912 181.768 21.504C184.648 20.032 187.656 19.296 190.792 19.296C202.44 19.296 208.264 26.208 208.264 40.032V71.04H195.208V40.992C195.208 33.76 192.168 30.272 186.088 30.528C182.952 30.528 180.328 31.488 178.216 33.408C176.168 35.328 175.144 37.696 175.144 40.512V71.04H161.992Z" fill="url(#paint3_linear_30_146)"/>
<path d="M223.352 71.04V3.84H235.736L270.392 50.592C269.88 46.56 269.495 42.368 269.24 38.016C269.047 33.6 268.984 28.512 269.048 22.752V3.84H282.583V71.04H270.008L235.544 25.056C235.928 29.28 236.215 32.64 236.408 35.136C236.6 37.568 236.728 39.616 236.792 41.28C236.855 42.88 236.887 44.544 236.887 46.272V71.04H223.352Z" fill="url(#paint4_linear_30_146)"/>
<path d="M321.73 72C316.547 72 311.939 70.88 307.906 68.64C303.874 66.336 300.706 63.2 298.402 59.232C296.099 55.264 294.947 50.72 294.947 45.6C294.947 40.544 296.099 36.032 298.402 32.064C300.706 28.096 303.874 24.992 307.906 22.752C311.939 20.448 316.547 19.296 321.73 19.296C326.786 19.296 331.331 20.448 335.363 22.752C339.395 24.992 342.562 28.096 344.867 32.064C347.171 36.032 348.323 40.544 348.323 45.6C348.323 50.72 347.171 55.264 344.867 59.232C342.562 63.2 339.395 66.336 335.363 68.64C331.331 70.88 326.786 72 321.73 72ZM321.73 60.576C324.29 60.576 326.594 59.936 328.642 58.656C330.69 57.312 332.258 55.52 333.346 53.28C334.499 51.04 335.074 48.48 335.074 45.6C335.074 42.72 334.499 40.16 333.346 37.92C332.258 35.68 330.69 33.92 328.642 32.64C326.594 31.36 324.29 30.72 321.73 30.72C319.107 30.72 316.771 31.36 314.723 32.64C312.674 33.92 311.074 35.68 309.922 37.92C308.77 40.16 308.194 42.72 308.194 45.6C308.194 48.48 308.77 51.04 309.922 53.28C311.074 55.52 312.674 57.312 314.723 58.656C316.771 59.936 319.107 60.576 321.73 60.576Z" fill="url(#paint5_linear_30_146)"/>
<path d="M373.305 71.04L351.993 20.352H366.393L378.777 54.528L391.641 20.352H405.657L383.289 71.04H373.305Z" fill="url(#paint6_linear_30_146)"/>
<path d="M431.783 72C427.559 72 423.751 70.848 420.359 68.544C416.967 66.24 414.247 63.104 412.199 59.136C410.215 55.168 409.223 50.656 409.223 45.6C409.223 40.416 410.215 35.872 412.199 31.968C414.247 28 416.999 24.896 420.455 22.656C423.975 20.416 427.943 19.296 432.359 19.296C435.943 19.296 439.079 20.032 441.767 21.504C444.455 22.912 446.599 24.768 448.199 27.072V20.352H461.255V71.04H448.103V64.224C446.311 66.464 443.975 68.32 441.095 69.792C438.279 71.264 435.175 72 431.783 72ZM435.335 60.576C439.239 60.576 442.407 59.2 444.839 56.448C447.271 53.696 448.487 50.08 448.487 45.6C448.487 41.12 447.271 37.504 444.839 34.752C442.407 32 439.239 30.624 435.335 30.624C431.495 30.624 428.359 32 425.927 34.752C423.559 37.504 422.375 41.12 422.375 45.6C422.375 50.08 423.559 53.696 425.927 56.448C428.359 59.2 431.495 60.576 435.335 60.576Z" fill="url(#paint7_linear_30_146)"/>
<defs>
<linearGradient id="paint0_linear_30_146" x1="0.166138" y1="72.04" x2="461.166" y2="72.04" gradientUnits="userSpaceOnUse">
<stop stop-color="#FC6D83"/>
<stop offset="0.489583" stop-color="#7676E8"/>
<stop offset="1" stop-color="#86E9DA"/>
</linearGradient>
<linearGradient id="paint1_linear_30_146" x1="0.166138" y1="72.04" x2="461.166" y2="72.04" gradientUnits="userSpaceOnUse">
<stop stop-color="#FC6D83"/>
<stop offset="0.489583" stop-color="#7676E8"/>
<stop offset="1" stop-color="#86E9DA"/>
</linearGradient>
<linearGradient id="paint2_linear_30_146" x1="0.166138" y1="72.04" x2="461.166" y2="72.04" gradientUnits="userSpaceOnUse">
<stop stop-color="#FC6D83"/>
<stop offset="0.489583" stop-color="#7676E8"/>
<stop offset="1" stop-color="#86E9DA"/>
</linearGradient>
<linearGradient id="paint3_linear_30_146" x1="0.166138" y1="72.04" x2="461.166" y2="72.04" gradientUnits="userSpaceOnUse">
<stop stop-color="#FC6D83"/>
<stop offset="0.489583" stop-color="#7676E8"/>
<stop offset="1" stop-color="#86E9DA"/>
</linearGradient>
<linearGradient id="paint4_linear_30_146" x1="0.166138" y1="72.04" x2="461.166" y2="72.04" gradientUnits="userSpaceOnUse">
<stop stop-color="#FC6D83"/>
<stop offset="0.489583" stop-color="#7676E8"/>
<stop offset="1" stop-color="#86E9DA"/>
</linearGradient>
<linearGradient id="paint5_linear_30_146" x1="0.166138" y1="72.04" x2="461.166" y2="72.04" gradientUnits="userSpaceOnUse">
<stop stop-color="#FC6D83"/>
<stop offset="0.489583" stop-color="#7676E8"/>
<stop offset="1" stop-color="#86E9DA"/>
</linearGradient>
<linearGradient id="paint6_linear_30_146" x1="0.166138" y1="72.04" x2="461.166" y2="72.04" gradientUnits="userSpaceOnUse">
<stop stop-color="#FC6D83"/>
<stop offset="0.489583" stop-color="#7676E8"/>
<stop offset="1" stop-color="#86E9DA"/>
</linearGradient>
<linearGradient id="paint7_linear_30_146" x1="0.166138" y1="72.04" x2="461.166" y2="72.04" gradientUnits="userSpaceOnUse">
<stop stop-color="#FC6D83"/>
<stop offset="0.489583" stop-color="#7676E8"/>
<stop offset="1" stop-color="#86E9DA"/>
</linearGradient>
</defs>
</svg>
