<svg width="44" height="38" viewBox="0 0 44 38" fill="none" xmlns="http://www.w3.org/2000/svg">
<ellipse cx="21.6686" cy="18.9292" rx="21.6686" ry="18.9292" fill="url(#paint0_linear_231_5)"/>
<path d="M32.0482 20.0333C32.341 19.7404 32.341 19.2655 32.0482 18.9726L27.2752 14.1996C26.9823 13.9067 26.5074 13.9067 26.2145 14.1996C25.9216 14.4925 25.9216 14.9674 26.2145 15.2603L30.4572 19.5029L26.2145 23.7456C25.9216 24.0385 25.9216 24.5133 26.2145 24.8062C26.5074 25.0991 26.9823 25.0991 27.2752 24.8062L32.0482 20.0333ZM31.5178 18.7529L11.8191 18.7529L11.8191 20.2529L31.5178 20.2529L31.5178 18.7529Z" fill="white"/>
<defs>
<linearGradient id="paint0_linear_231_5" x1="1.93634" y1="1.62429" x2="49.746" y2="24.4125" gradientUnits="userSpaceOnUse">
<stop stop-color="#7676E8"/>
<stop offset="1" stop-color="#FC6D83"/>
</linearGradient>
</defs>
</svg>
